<svg height="802" node-id="1" sillyvg="true" template-height="802" template-width="1051" version="1.1" viewBox="0 0 1051 802" width="1051" xmlns="http://www.w3.org/2000/svg" xmlns:xlink="http://www.w3.org/1999/xlink"><defs node-id="187"><linearGradient gradientUnits="objectBoundingBox" id="未命名的渐变_25" node-id="5" spreadMethod="pad" x1="-1161.27" x2="-862.55" y1="469.71" y2="469.71"><stop offset="0" stop-color="#fcbd60"/><stop offset="1" stop-color="#ff2a9d"/></linearGradient><linearGradient gradientUnits="objectBoundingBox" id="未命名的渐变_25-2" node-id="8" spreadMethod="pad" x1="8566.28" x2="8931.32" y1="475.57" y2="475.57"><stop offset="0" stop-color="#fcbd60"/><stop offset="1" stop-color="#ff2a9d"/></linearGradient><linearGradient gradientUnits="objectBoundingBox" id="未命名的渐变_22" node-id="9" spreadMethod="pad" x1="8711.11" x2="9042.09" y1="589.35" y2="589.35"><stop offset="0" stop-color="#ffe496"/><stop offset="1" stop-color="#ff446f"/></linearGradient><linearGradient gradientUnits="objectBoundingBox" id="未命名的渐变_22-2" node-id="12" spreadMethod="pad" x1="8794.63" x2="9086.4" y1="400.42" y2="400.42"><stop offset="0" stop-color="#ffe496"/><stop offset="1" stop-color="#ff446f"/></linearGradient><linearGradient gradientUnits="objectBoundingBox" id="未命名的渐变_25-3" node-id="13" spreadMethod="pad" x1="8734.36" x2="9059.44" y1="503.28" y2="503.28"><stop offset="0" stop-color="#fcbd60"/><stop offset="1" stop-color="#ff2a9d"/></linearGradient><linearGradient gradientUnits="objectBoundingBox" id="未命名的渐变_7" node-id="28" spreadMethod="pad" x1="679.88" x2="287.56" y1="442.09" y2="442.09"><stop offset="0" stop-color="#f5222d"/><stop offset="1" stop-color="#cf1322"/></linearGradient><clipPath id="clip-path" node-id="14"><path d="M 365.50 414.70 L 506.50 332.80 L 505.90 539.30 L 364.90 621.20 L 365.50 414.70 Z" fill="#000000" fill-rule="nonzero" node-id="226" stroke="none" target-height="288.40002" target-width="141.6" target-x="364.9" target-y="332.8"/></clipPath><clipPath id="clip-path-2" node-id="16"><path d="M 354.90 245.90 L 495.90 164.00 L 501.40 231.10 L 504.00 267.30 L 505.80 302.00 L 506.50 332.80 L 365.50 414.70 L 364.80 383.90 L 363.00 349.20 L 360.40 313.00 L 354.90 245.90 Z" fill="#000000" fill-rule="nonzero" node-id="230" stroke="none" target-height="250.70001" target-width="151.6" target-x="354.9" target-y="164"/></clipPath><clipPath id="clip-path-3" node-id="18"><path d="M 457.00 410.60 L 598.00 328.70 L 604.70 355.90 L 623.90 439.40 L 482.90 521.30 L 463.70 437.80 L 457.00 410.60 Z" fill="#000000" fill-rule="nonzero" node-id="234" stroke="none" target-height="192.59998" target-width="166.90002" target-x="457" target-y="328.7"/></clipPath><clipPath id="clip-path-4" node-id="20"><path d="M 573.90 488.80 L 714.90 406.90 L 648.00 576.50 L 507.00 658.40 L 573.90 488.80 Z" fill="#000000" fill-rule="nonzero" node-id="238" stroke="none" target-height="251.50003" target-width="207.90002" target-x="507" target-y="406.9"/></clipPath><clipPath id="clip-path-5" node-id="22"><path d="M 289.00 81.90 L 429.90 0.00 L 525.30 55.10 L 384.40 137.00 L 289.00 81.90 Z" fill="#000000" fill-rule="nonzero" node-id="242" stroke="none" target-height="137" target-width="236.29999" target-x="289" target-y="0"/></clipPath><clipPath id="clip-path-6" node-id="24"><path d="M 384.40 137.00 L 525.30 55.10 L 598.00 328.70 L 457.00 410.60 L 384.40 137.00 Z" fill="#000000" fill-rule="nonzero" node-id="246" stroke="none" target-height="355.5" target-width="213.6" target-x="384.4" target-y="55.1"/></clipPath><clipPath id="clip-path-7" node-id="26"><path d="M 609.10 392.60 L 750.10 310.70 L 714.90 406.90 L 573.90 488.80 L 609.10 392.60 Z" fill="#000000" fill-rule="nonzero" node-id="250" stroke="none" target-height="178.09998" target-width="176.19995" target-x="573.9" target-y="310.7"/></clipPath><clipPath id="clip-path-8" node-id="31"><path d="M 679.90 307.60 L 820.80 225.70 L 819.40 720.30 L 678.50 802.30 L 679.90 307.60 Z" fill="#000000" fill-rule="nonzero" node-id="254" stroke="none" target-height="576.6" target-width="142.29999" target-x="678.5" target-y="225.7"/></clipPath><clipPath id="clip-path-9" node-id="33"><path d="M 584.50 252.50 L 725.40 170.60 L 820.80 225.70 L 679.90 307.60 L 584.50 252.50 Z" fill="#000000" fill-rule="nonzero" node-id="258" stroke="none" target-height="137" target-width="236.29999" target-x="584.5" target-y="170.6"/></clipPath></defs><g node-id="585"><path d="M 933.50 311.80 L 932.70 307.80 L 930.80 304.30 L 927.90 301.70 L 924.20 300.10 L 920.00 299.90 L 916.20 301.00 L 913.00 303.30 L 910.70 306.50 L 909.50 310.40 L 909.50 312.50 L 910.40 316.40 L 911.30 318.20 L 913.90 321.10 L 917.30 323.10 L 919.40 323.60 L 918.00 333.70 L 916.40 343.00 L 914.50 351.60 L 912.30 359.60 L 909.70 367.60 L 903.90 381.90 L 900.70 388.20 L 895.90 396.50 L 891.10 403.90 L 886.00 410.50 L 880.60 416.70 L 875.20 422.20 L 869.80 427.00 L 858.70 435.40 L 846.60 442.50 L 839.70 445.80 L 832.50 448.80 L 825.20 451.40 L 817.80 453.60 L 817.30 452.40 L 816.40 451.00 L 814.60 449.50 L 821.30 445.10 L 827.40 440.50 L 833.10 435.70 L 838.40 430.70 L 848.00 419.90 L 856.10 408.70 L 860.90 400.80 L 865.10 393.00 L 868.80 385.10 L 874.80 369.20 L 877.10 361.60 L 880.80 346.50 L 883.60 329.50 L 884.60 320.90 L 885.30 307.00 L 889.40 306.20 L 892.80 304.30 L 895.50 301.30 L 897.00 297.60 L 897.30 295.50 L 896.70 291.40 L 894.90 287.90 L 892.10 285.10 L 888.50 283.40 L 886.40 283.00 L 882.30 283.30 L 880.40 284.00 L 877.10 286.20 L 874.70 289.30 L 873.90 291.20 L 873.30 295.30 L 873.50 297.30 L 874.90 301.10 L 877.50 304.10 L 879.10 305.30 L 882.90 306.70 L 882.20 320.50 L 881.30 329.00 L 878.50 345.90 L 874.80 360.90 L 869.80 376.30 L 866.50 384.30 L 862.90 392.10 L 858.70 399.90 L 853.90 407.70 L 845.80 418.80 L 841.10 424.20 L 836.10 429.50 L 830.90 434.40 L 825.20 439.20 L 819.00 443.70 L 812.30 448.10 L 805.70 445.50 L 802.20 444.80 L 807.10 438.60 L 811.70 432.00 L 815.90 424.80 L 819.80 417.40 L 823.30 409.70 L 826.50 401.80 L 832.00 385.50 L 837.40 365.00 L 841.90 341.50 L 844.70 320.90 L 846.50 299.70 L 848.30 299.30 L 851.60 297.70 L 854.10 295.20 L 855.60 292.00 L 856.10 288.30 L 855.80 286.40 L 855.20 284.70 L 853.30 281.70 L 850.50 279.50 L 848.90 278.70 L 845.30 278.10 L 843.40 278.30 L 841.60 278.70 L 838.50 280.50 L 836.10 283.10 L 835.30 284.70 L 834.50 288.30 L 834.50 290.20 L 835.50 293.60 L 836.50 295.20 L 839.00 297.70 L 842.20 299.30 L 844.10 299.70 L 843.10 312.70 L 841.00 331.20 L 837.40 353.40 L 834.90 365.30 L 829.50 385.80 L 823.90 402.00 L 820.60 410.00 L 817.00 417.60 L 813.20 424.90 L 808.90 432.00 L 804.20 438.50 L 799.30 444.50 L 793.60 444.40 L 782.40 306.90 L 784.50 306.60 L 788.20 305.00 L 789.80 303.80 L 792.30 300.70 L 793.60 296.90 L 793.80 294.80 L 793.60 292.70 L 792.20 288.90 L 789.70 285.80 L 786.30 283.70 L 782.30 282.80 L 780.10 282.90 L 776.30 284.10 L 773.10 286.40 L 770.80 289.70 L 769.70 293.70 L 770.00 297.80 L 771.60 301.50 L 774.30 304.40 L 776.00 305.50 L 780.00 306.80 L 791.20 444.60 L 784.50 446.10 L 780.90 444.00 L 777.50 441.40 L 774.30 438.50 L 771.10 435.00 L 767.30 430.10 L 763.80 424.60 L 760.40 418.50 L 754.70 405.40 L 752.10 398.30 L 748.70 387.50 L 745.90 376.40 L 741.50 354.70 L 738.50 334.90 L 736.90 318.90 L 738.90 318.60 L 742.60 316.90 L 744.10 315.70 L 746.50 312.50 L 747.80 308.80 L 747.90 306.60 L 747.10 302.60 L 745.00 299.20 L 742.00 296.60 L 738.30 295.20 L 736.20 295.00 L 734.10 295.10 L 730.30 296.40 L 727.10 298.80 L 724.90 302.10 L 723.90 306.10 L 724.00 308.20 L 725.00 312.00 L 727.20 315.30 L 728.70 316.60 L 732.30 318.40 L 734.40 318.90 L 737.20 343.90 L 740.70 364.90 L 743.10 375.90 L 745.90 387.00 L 749.20 397.80 L 751.80 405.00 L 757.50 418.20 L 760.80 424.50 L 764.40 430.20 L 768.20 435.30 L 771.30 438.90 L 774.60 442.10 L 781.60 447.30 L 778.90 448.70 L 776.50 450.40 L 770.00 448.30 L 763.80 445.90 L 758.10 443.10 L 752.80 440.00 L 747.60 436.50 L 742.70 432.80 L 734.00 424.80 L 728.70 418.90 L 723.80 412.70 L 719.50 406.40 L 715.50 399.80 L 708.80 386.60 L 704.70 376.60 L 701.40 367.10 L 696.60 349.50 L 693.90 335.60 L 697.20 334.10 L 698.60 333.00 L 700.70 330.20 L 701.80 326.80 L 702.00 325.00 L 701.20 321.30 L 700.50 319.70 L 698.20 317.00 L 695.20 315.20 L 691.70 314.40 L 689.80 314.50 L 686.30 315.60 L 684.80 316.50 L 682.40 319.10 L 680.90 322.30 L 680.60 324.00 L 680.50 325.90 L 681.40 329.50 L 683.30 332.40 L 686.10 334.60 L 689.50 335.70 L 691.50 335.90 L 694.20 350.00 L 696.30 358.30 L 701.20 374.10 L 706.60 387.50 L 709.80 394.20 L 717.40 407.50 L 721.80 414.00 L 726.60 420.20 L 732.00 426.20 L 740.80 434.40 L 750.90 441.70 L 756.30 444.90 L 762.10 447.70 L 768.30 450.30 L 774.90 452.50 L 774.50 454.00 L 774.70 455.10 L 776.20 456.80 L 767.40 456.80 L 759.20 456.40 L 751.50 455.50 L 744.40 454.30 L 730.60 450.80 L 718.60 446.20 L 711.00 442.40 L 704.20 438.30 L 698.00 434.00 L 692.20 429.20 L 686.90 424.30 L 682.30 419.40 L 677.90 414.10 L 670.70 404.00 L 666.90 397.50 L 660.70 385.00 L 657.00 375.80 L 654.30 367.60 L 650.80 353.80 L 653.90 351.30 L 655.00 349.80 L 656.50 346.30 L 656.80 342.50 L 656.40 340.60 L 654.70 336.90 L 652.00 334.20 L 648.50 332.60 L 644.80 332.10 L 640.90 333.00 L 639.10 333.90 L 636.20 336.50 L 634.40 339.80 L 633.70 343.60 L 634.40 347.50 L 635.20 349.30 L 637.60 352.30 L 639.20 353.50 L 642.70 354.90 L 646.50 355.10 L 648.50 354.70 L 652.10 368.70 L 654.90 377.00 L 658.60 386.20 L 664.80 398.70 L 672.00 410.20 L 680.10 420.50 L 684.70 425.50 L 689.80 430.40 L 695.60 435.20 L 701.60 439.60 L 708.30 443.70 L 715.70 447.50 L 727.40 452.30 L 733.90 454.30 L 740.90 456.10 L 747.80 457.40 L 755.20 458.40 L 763.20 459.10 L 771.80 459.30 L 780.80 459.10 L 785.60 460.30 L 790.50 461.00 L 795.50 461.20 L 797.40 484.00 L 798.60 504.30 L 799.20 522.30 L 799.40 540.30 L 799.10 556.00 L 798.50 569.70 L 797.40 583.30 L 796.10 595.00 L 794.60 604.90 L 790.90 622.90 L 789.10 629.60 L 786.00 638.90 L 783.30 645.30 L 780.60 650.60 L 776.80 656.10 L 781.80 661.40 L 784.20 658.50 L 786.30 655.30 L 789.30 649.80 L 793.30 640.40 L 795.50 633.60 L 799.50 618.40 L 801.50 608.30 L 803.10 598.20 L 804.40 586.20 L 805.60 572.20 L 806.30 558.20 L 806.70 542.10 L 806.50 523.60 L 805.90 505.20 L 804.60 484.30 L 802.70 460.90 L 807.40 460.10 L 811.20 459.20 L 813.60 458.30 L 816.60 456.40 L 829.70 452.50 L 842.50 447.30 L 848.60 444.20 L 859.90 437.50 L 865.50 433.50 L 871.30 428.90 L 876.80 424.10 L 882.30 418.50 L 887.90 412.10 L 893.00 405.40 L 898.00 397.90 L 902.80 389.50 L 906.00 383.10 L 912.00 368.60 L 914.60 360.40 L 916.90 352.30 L 918.80 343.50 L 920.50 334.00 L 921.80 323.80 L 925.90 323.00 L 929.40 320.90 L 931.90 317.80 L 932.70 315.90 L 933.50 311.80 Z" fill="url(#未命名的渐变_25)" fill-rule="nonzero" group-id="1" node-id="264" stroke="none" target-height="383.30002" target-width="299.8" target-x="633.7" target-y="278.1"/><path d="M 773.70 561.40 L 769.70 545.50 L 767.00 531.80 L 765.90 524.30 L 764.60 509.30 L 764.70 502.40 L 765.10 497.90 L 765.80 494.00 L 767.80 488.20 L 769.10 486.30 L 772.20 483.40 L 774.00 482.60 L 776.20 482.20 L 778.80 482.20 L 781.80 482.70 L 784.60 483.60 L 791.90 487.30 L 796.50 490.40 L 802.20 494.70 L 809.00 500.70 L 817.10 508.40 L 820.50 514.40 L 822.80 519.70 L 825.00 525.70 L 828.60 539.40 L 830.70 553.40 L 831.20 560.90 L 831.30 569.30 L 831.00 578.70 L 830.30 588.00 L 828.90 598.30 L 826.70 609.60 L 826.50 612.50 L 826.80 614.70 L 827.30 616.30 L 828.10 617.50 L 829.20 618.50 L 830.50 619.10 L 832.10 619.30 L 834.10 619.10 L 836.60 618.40 L 839.60 617.00 L 843.10 614.80 L 849.70 609.00 L 853.30 605.00 L 856.60 600.70 L 859.90 595.80 L 863.10 590.20 L 865.90 584.30 L 868.40 577.80 L 870.60 570.70 L 872.40 563.50 L 873.60 555.60 L 874.30 547.10 L 874.40 540.80 L 873.40 527.10 L 872.30 519.80 L 870.70 512.60 L 868.70 505.20 L 866.10 497.40 L 859.70 481.00 L 857.20 473.00 L 855.20 465.10 L 853.70 457.30 L 852.70 449.40 L 852.20 441.70 L 852.10 434.10 L 852.40 426.80 L 854.30 412.20 L 857.50 398.70 L 860.40 389.90 L 863.70 381.80 L 867.40 374.20 L 871.70 366.80 L 876.00 360.20 L 880.60 354.30 L 885.60 348.80 L 890.60 344.20 L 895.50 340.30 L 899.50 337.80 L 903.40 335.80 L 907.10 334.30 L 910.60 333.30 L 914.30 332.70 L 917.80 332.70 L 921.20 333.30 L 924.30 334.30 L 927.30 335.90 L 930.00 338.10 L 932.70 341.00 L 935.20 344.60 L 937.40 349.00 L 939.30 353.60 L 940.90 358.50 L 942.10 363.70 L 943.20 370.70 L 943.80 378.10 L 943.90 385.80 L 943.50 393.60 L 941.60 409.70 L 939.30 421.90 L 936.40 434.10 L 933.00 446.10 L 925.40 468.90 L 921.60 479.10 L 908.70 510.80 L 905.90 519.30 L 904.30 528.10 L 904.10 536.40 L 904.40 540.50 L 905.90 547.40 L 907.10 550.60 L 908.60 553.10 L 910.30 555.10 L 911.70 556.40 L 915.10 557.70 L 917.10 557.90 L 921.10 557.00 L 926.20 554.10 L 929.50 551.40 L 933.20 547.50 L 937.60 542.20 L 945.80 529.80 L 950.00 522.50 L 954.10 514.40 L 961.40 497.80 L 968.20 478.70 L 971.20 468.90 L 976.40 448.00 L 978.70 436.90 L 982.10 414.40 L 983.30 402.70 L 984.10 390.80 L 984.60 378.80 L 984.60 366.80 L 984.20 354.60 L 982.70 331.90 L 982.40 322.00 L 982.60 312.50 L 983.20 303.40 L 984.20 294.20 L 986.90 277.30 L 988.70 269.60 L 991.50 259.20 L 994.60 249.90 L 997.80 241.60 L 1001.50 233.40 L 1005.00 226.40 L 1008.50 220.50 L 1012.40 214.80 L 1015.80 210.40 L 1018.80 207.10 L 1021.50 204.80 L 1025.30 202.70 L 1029.70 202.60 L 1035.50 204.10 L 1038.20 205.50 L 1040.80 207.40 L 1043.30 210.00 L 1046.20 214.80 L 1048.70 221.80 L 1049.80 226.90 L 1050.50 233.20 L 1050.80 241.00 L 1050.20 267.90 L 1048.30 298.40 L 1046.60 316.50 L 1042.30 351.70 L 1037.30 383.10 L 1034.30 399.20 L 1026.70 433.30 L 1022.30 450.50 L 1017.30 468.00 L 1011.70 485.80 L 1005.60 503.50 L 998.90 521.10 L 991.50 538.80 L 985.60 551.80 L 979.20 564.70 L 972.50 577.40 L 965.30 590.00 L 957.70 602.30 L 949.70 614.40 L 941.20 626.10 L 932.30 637.50 L 924.90 646.40 L 917.10 655.00 L 909.00 663.30 L 900.60 671.40 L 891.80 679.20 L 882.80 686.60 L 873.40 693.70 L 863.70 700.50 L 853.50 706.90 L 843.00 713.00 L 832.30 718.50 L 821.20 723.70 L 809.70 728.50 L 797.60 732.90 L 785.10 736.80 L 772.60 740.10 L 759.70 743.00 L 746.10 745.40 L 732.00 747.30 L 717.30 748.60 L 715.70 748.50 L 714.20 748.00 L 712.90 747.10 L 711.90 745.80 L 711.30 744.30 L 711.10 742.70 L 711.40 741.10 L 716.80 730.70 L 718.60 726.00 L 719.90 721.20 L 720.80 716.20 L 721.20 711.20 L 721.20 706.20 L 719.60 693.50 L 718.40 686.80 L 715.40 675.60 L 711.80 666.40 L 708.60 660.40 L 705.30 655.20 L 701.60 650.30 L 689.40 636.10 L 687.90 633.90 L 686.70 631.30 L 686.00 628.30 L 685.90 622.00 L 686.30 618.60 L 688.30 612.00 L 691.40 605.70 L 693.30 603.00 L 695.40 600.60 L 697.90 598.50 L 700.40 596.90 L 703.00 595.80 L 707.20 595.20 L 711.80 596.10 L 716.20 598.60 L 721.10 603.40 L 724.00 607.30 L 727.10 612.50 L 730.40 619.30 L 736.00 632.70 L 740.20 643.80 L 749.40 670.00 L 751.80 675.60 L 753.60 679.00 L 755.60 681.60 L 757.60 683.70 L 759.90 685.30 L 762.60 686.50 L 765.80 687.20 L 773.40 687.30 L 778.60 686.70 L 781.10 686.00 L 783.20 684.90 L 785.10 683.40 L 786.80 681.40 L 788.50 678.30 L 789.90 674.50 L 790.90 669.80 L 791.80 659.70 L 791.30 644.60 L 788.80 625.00 L 785.10 605.20 L 779.00 579.60 L 769.50 545.70 L 766.60 532.20 L 764.40 517.40 L 763.90 510.10 L 763.80 503.30 L 764.90 495.00 L 766.80 489.30 L 768.10 487.30 L 771.20 484.50 L 773.10 483.70 L 775.20 483.20 L 777.80 483.20 L 781.00 483.60 L 787.20 485.90 L 796.00 491.00 L 801.80 495.20 L 808.80 500.90 L 817.20 508.40" fill="url(#未命名的渐变_25-2)" fill-rule="nonzero" group-id="1" node-id="266" stroke="none" target-height="546" target-width="364.90002" target-x="685.9" target-y="202.6"/><path d="M 691.00 637.40 L 693.00 639.60 L 695.70 640.70 L 698.60 640.60 L 700.10 640.00 L 701.50 638.90 L 702.70 637.40 L 703.70 635.00 L 704.40 632.20 L 704.60 628.30 L 704.00 618.20 L 700.30 578.20 L 688.40 467.70 L 688.10 463.40 L 688.40 459.10 L 689.10 454.80 L 691.20 446.90 L 692.60 442.70 L 694.30 438.60 L 696.50 434.80 L 698.80 431.60 L 700.70 429.80 L 702.60 428.50 L 704.70 427.60 L 707.00 427.20 L 709.40 427.40 L 712.20 428.30 L 714.90 429.70 L 717.90 432.10 L 721.50 435.50 L 724.90 440.50 L 727.90 447.90 L 730.80 459.50 L 731.90 466.60 L 733.00 477.50 L 733.70 489.90 L 733.90 502.50 L 733.40 529.40 L 730.80 569.10 L 728.50 592.80 L 724.50 627.10 L 725.40 630.30 L 726.40 631.80 L 729.00 633.90 L 732.30 634.80 L 734.60 634.80 L 737.30 634.20 L 740.80 633.10 L 744.10 631.60 L 748.00 629.30 L 752.80 625.80 L 758.10 620.80 L 761.30 617.00 L 770.90 603.80 L 780.90 587.80 L 790.70 570.60 L 799.60 553.90 L 814.20 525.20 L 816.20 522.20 L 821.10 517.10 L 826.90 513.00 L 829.90 511.70 L 833.00 510.80 L 837.20 510.50 L 841.50 511.40 L 843.60 512.60 L 845.80 514.20 L 847.70 516.20 L 849.60 518.80 L 851.60 522.30 L 855.40 530.70 L 856.70 534.90 L 857.50 539.30 L 857.40 545.40 L 856.70 548.70 L 854.10 555.60 L 851.90 559.70 L 846.10 567.90 L 841.90 572.80 L 837.30 577.70 L 831.60 582.90 L 805.30 605.10 L 798.60 611.10 L 792.40 617.10 L 784.80 625.50 L 778.70 634.00 L 776.30 638.40 L 774.50 642.70 L 773.30 646.50 L 772.80 649.50 L 772.80 651.70 L 773.20 653.90 L 774.00 655.50 L 775.00 656.70 L 778.00 658.20 L 779.90 658.50 L 786.10 658.30 L 792.10 657.00 L 796.70 655.40 L 798.60 654.70 L 810.00 647.30 L 829.30 635.80 L 844.90 627.30 L 853.00 623.30 L 861.10 619.60 L 874.10 614.70 L 883.30 612.30 L 887.70 611.60 L 891.50 611.50 L 894.80 611.80 L 897.20 612.40 L 899.20 613.30 L 900.80 614.60 L 902.20 616.20 L 903.80 619.00 L 904.90 621.60 L 905.90 626.50 L 905.80 629.80 L 905.30 632.90 L 902.80 638.60 L 899.20 643.60 L 896.00 646.70 L 892.60 649.40 L 888.90 651.80 L 885.00 653.80 L 880.90 655.30 L 858.00 660.80 L 842.70 665.40 L 827.40 671.20 L 820.40 674.50 L 812.00 679.50 L 808.50 682.10 L 805.30 685.00 L 802.80 687.90 L 798.90 694.80 L 793.00 703.50 L 785.60 712.20 L 776.50 721.20 L 771.60 725.50 L 760.80 733.60 L 749.20 740.60 L 743.10 743.60 L 736.90 746.20 L 730.70 748.30 L 724.30 750.00 L 717.90 751.00 L 711.50 751.50 L 706.80 751.40 L 702.00 750.90 L 697.30 750.00 L 692.60 748.70 L 687.30 746.70 L 683.10 744.40 L 679.80 742.10 L 676.90 739.40 L 674.60 736.50 L 672.80 733.50 L 670.20 726.80 L 669.30 723.20 L 666.70 705.70 L 665.50 699.40 L 663.00 691.00 L 661.10 686.70 L 658.80 682.60 L 655.90 678.40 L 652.30 674.10 L 648.30 670.20 L 643.30 666.20 L 630.90 657.90 L 618.70 648.80 L 607.20 638.80 L 596.80 628.30 L 588.10 618.00 L 581.20 607.80 L 578.80 603.30 L 576.70 598.50 L 575.50 594.50 L 575.00 590.90 L 575.10 588.30 L 575.70 586.00 L 576.70 584.10 L 578.20 582.40 L 580.00 581.10 L 582.40 580.10 L 585.60 579.40 L 589.70 579.10 L 598.20 579.80 L 610.70 582.50 L 621.20 585.80 L 630.60 589.20 L 638.90 592.90 L 647.00 597.10 L 654.10 601.20 L 660.20 605.40 L 666.20 609.90 L 675.60 618.10 L 681.40 624.30 L 685.60 629.40 L 691.00 637.40 Z" fill="url(#未命名的渐变_22)" fill-rule="nonzero" group-id="1" node-id="268" stroke="none" target-height="324.3" target-width="330.90002" target-x="575" target-y="427.2"/><path d="M 286.90 571.60 L 266.30 553.20 L 256.30 543.70 L 230.50 518.40 L 215.40 503.00 L 200.10 486.60 L 183.50 468.40 L 161.40 442.50 L 138.90 414.50 L 127.90 399.80 L 116.90 384.70 L 106.30 369.30 L 96.00 353.60 L 86.10 337.50 L 76.70 321.20 L 67.90 304.80 L 59.70 288.10 L 58.00 285.00 L 56.00 282.10 L 53.70 279.50 L 47.60 274.60 L 39.00 269.10 L 34.20 266.90 L 27.60 264.80 L 24.30 264.40 L 21.10 264.40 L 17.90 264.90 L 14.90 266.10 L 10.80 268.90 L 8.90 271.00 L 5.50 276.50 L 4.10 280.00 L 1.70 289.30 L 0.70 296.00 L 0.10 304.30 L 0.00 314.60 L 1.40 322.70 L 2.90 329.40 L 5.60 338.90 L 10.80 353.20 L 14.70 362.00 L 19.00 370.60 L 24.30 380.20 L 30.90 390.70 L 41.80 406.20 L 48.40 414.70 L 63.50 432.00 L 72.00 440.80 L 81.50 449.90 L 92.10 459.40 L 102.60 468.40 L 114.30 477.60 L 127.10 487.10 L 141.20 496.90 L 155.30 506.10 L 170.60 515.40 L 187.30 525.00 L 205.50 534.70 L 223.50 543.80 L 243.00 552.90 L 264.10 562.20 L 286.90 571.60 Z" fill="#f5222d" fill-rule="nonzero" group-id="1" node-id="270" stroke="none" target-height="307.19998" target-width="286.9" target-x="0" target-y="264.4"/><path d="M 364.90 469.10 L 368.60 454.00 L 370.90 441.40 L 372.10 428.10 L 371.90 419.80 L 371.50 416.30 L 370.60 412.90 L 369.40 410.20 L 367.90 408.10 L 366.50 406.90 L 364.80 406.10 L 362.80 405.70 L 360.40 405.70 L 358.20 406.20 L 352.20 408.80 L 348.20 411.20 L 343.40 414.80 L 337.50 419.80 L 330.20 426.70 L 326.50 433.60 L 324.20 439.60 L 321.50 449.40 L 320.20 455.80 L 319.40 462.30 L 318.90 469.80 L 319.20 484.80 L 321.00 499.30 L 322.50 507.60 L 322.70 510.20 L 322.40 512.10 L 321.80 513.40 L 319.90 515.00 L 317.00 515.20 L 312.50 513.60 L 309.70 511.90 L 306.40 509.30 L 303.50 506.40 L 300.40 502.80 L 297.20 498.40 L 294.40 493.90 L 291.80 488.60 L 289.40 482.70 L 287.50 476.60 L 285.90 470.00 L 284.90 462.60 L 284.50 451.30 L 285.60 438.60 L 286.80 432.30 L 288.50 425.70 L 290.80 418.70 L 296.40 403.90 L 298.70 396.70 L 300.30 389.70 L 301.40 382.70 L 302.10 375.60 L 302.30 368.80 L 302.00 362.10 L 300.30 349.10 L 299.00 342.90 L 295.30 331.20 L 292.20 323.80 L 288.70 317.10 L 285.00 310.90 L 280.70 305.10 L 276.40 300.10 L 272.10 295.90 L 265.00 290.70 L 258.40 287.50 L 254.90 286.60 L 251.70 286.20 L 248.70 286.40 L 245.80 287.10 L 243.00 288.20 L 240.50 290.00 L 238.10 292.50 L 235.90 295.80 L 233.80 299.80 L 232.20 304.00 L 230.80 308.60 L 229.90 313.40 L 229.10 319.90 L 228.90 326.80 L 229.10 334.00 L 230.90 348.60 L 232.30 356.10 L 234.90 367.30 L 238.00 378.10 L 244.90 398.60 L 258.40 432.60 L 260.20 440.60 L 260.60 444.70 L 260.40 452.20 L 259.80 455.80 L 258.90 458.80 L 256.50 463.10 L 253.80 465.40 L 250.70 466.20 L 248.80 466.00 L 246.70 465.40 L 244.30 464.10 L 241.40 461.90 L 238.00 458.60 L 233.90 453.60 L 229.50 447.30 L 225.10 439.90 L 220.70 431.40 L 216.70 422.80 L 212.90 413.30 L 209.40 402.90 L 206.20 392.40 L 203.50 381.20 L 201.00 369.50 L 199.10 357.60 L 197.60 345.30 L 196.70 332.60 L 196.30 319.90 L 196.50 306.90 L 197.90 282.90 L 198.00 272.50 L 197.40 262.80 L 196.30 253.10 L 194.90 244.10 L 193.00 235.70 L 190.80 227.50 L 188.30 220.10 L 182.80 206.90 L 177.20 196.50 L 171.40 188.40 L 169.00 185.80 L 166.20 183.60 L 164.20 182.40 L 162.70 182.10 L 160.20 182.20 L 155.60 183.40 L 153.40 184.50 L 151.40 186.10 L 149.40 188.10 L 147.80 190.50 L 146.30 193.60 L 145.00 197.60 L 144.20 201.60 L 143.60 206.70 L 143.40 219.40 L 144.70 249.90 L 147.60 281.90 L 152.00 313.60 L 157.00 341.60 L 160.10 355.90 L 167.70 385.80 L 172.10 400.90 L 177.10 416.10 L 182.70 431.50 L 192.20 454.10 L 203.00 476.40 L 209.00 487.30 L 215.40 497.90 L 222.20 508.40 L 229.30 518.60 L 236.90 528.50 L 245.00 538.00 L 253.40 547.10 L 262.40 556.00 L 269.80 562.70 L 277.60 569.00 L 285.70 575.10 L 294.20 581.00 L 303.00 586.50 L 312.00 591.50 L 321.30 596.20 L 331.10 600.50 L 341.30 604.50 L 351.90 608.00 L 362.50 611.10 L 373.60 613.60 L 385.10 615.80 L 397.30 617.50 L 409.90 618.70 L 411.20 618.60 L 413.40 617.40 L 414.70 615.20 L 414.70 612.70 L 411.40 606.80 L 409.40 601.90 L 407.90 596.70 L 407.00 591.40 L 406.80 586.10 L 407.20 580.70 L 408.60 571.80 L 410.20 564.80 L 412.20 558.30 L 414.30 553.00 L 416.90 548.10 L 422.40 540.10 L 432.20 528.70 L 433.60 526.60 L 434.50 524.20 L 435.00 521.40 L 435.10 518.50 L 434.80 515.50 L 433.10 509.40 L 430.20 503.80 L 428.40 501.30 L 426.30 499.30 L 424.10 497.70 L 421.70 496.60 L 419.10 496.10 L 416.40 496.20 L 412.50 497.70 L 410.30 499.20 L 408.00 501.40 L 404.00 506.60 L 399.50 515.30 L 391.70 534.90 L 384.40 555.80 L 382.40 560.30 L 379.40 565.10 L 377.80 566.70 L 376.00 568.00 L 373.80 569.00 L 371.20 569.60 L 365.20 569.70 L 361.00 569.20 L 358.80 568.60 L 356.90 567.50 L 355.30 566.00 L 353.90 564.00 L 352.50 561.00 L 351.50 557.30 L 350.80 552.70 L 350.40 543.00 L 351.50 528.80 L 352.80 519.90 L 356.20 502.30 L 359.90 486.60 L 366.30 464.00 L 370.10 448.30 L 372.20 435.20 L 372.70 428.70 L 372.80 424.40 L 372.20 417.10 L 371.40 413.70 L 370.20 411.10 L 368.70 409.00 L 367.30 407.80 L 365.60 407.00 L 363.60 406.50 L 361.20 406.50 L 358.90 406.90 L 352.80 409.40 L 348.70 411.70 L 343.70 415.10 L 337.60 420.00 L 330.20 426.70" fill="url(#未命名的渐变_22-2)" fill-rule="nonzero" group-id="1" node-id="272" stroke="none" target-height="436.6" target-width="291.7" target-x="143.4" target-y="182.1"/><path d="M 312.00 588.60 L 301.20 583.30 L 289.40 578.50 L 274.60 574.10 L 266.60 572.40 L 258.10 571.20 L 252.30 570.90 L 246.60 570.90 L 235.80 571.70 L 225.10 571.60 L 217.00 570.80 L 208.90 569.40 L 201.00 567.50 L 193.80 565.20 L 189.10 563.30 L 181.30 559.20 L 177.80 556.80 L 175.00 554.40 L 172.90 551.90 L 171.70 549.80 L 170.80 547.80 L 170.40 545.70 L 170.40 543.60 L 170.80 541.60 L 171.70 539.40 L 173.20 537.20 L 175.30 534.70 L 181.10 530.20 L 184.50 528.30 L 188.30 526.60 L 193.50 524.90 L 199.10 523.60 L 205.20 522.70 L 211.30 522.30 L 217.60 522.40 L 224.10 522.80 L 230.50 523.60 L 243.10 526.40 L 249.30 528.40 L 255.00 530.60 L 260.40 533.20 L 265.60 536.20 L 270.10 539.40 L 275.00 543.60 L 277.30 544.00 L 278.50 543.60 L 279.30 543.00 L 279.50 541.90 L 278.70 540.10 L 277.30 538.60 L 261.30 525.60 L 252.50 517.10 L 248.50 512.60 L 246.00 509.30 L 242.30 502.90 L 240.90 499.60 L 240.20 496.30 L 240.00 493.10 L 240.80 488.30 L 243.40 483.60 L 245.20 481.50 L 250.50 477.20 L 254.20 475.00 L 258.20 473.30 L 261.90 472.20 L 265.30 471.70 L 268.60 471.70 L 271.90 472.20 L 275.10 473.10 L 278.10 474.40 L 281.10 476.10 L 284.80 478.90 L 288.40 482.30 L 291.80 486.10 L 297.80 494.70 L 304.20 506.50 L 310.00 520.40 L 315.80 537.10 L 317.00 538.30 L 318.60 539.10 L 320.40 539.30 L 322.40 538.60 L 323.10 537.80 L 323.70 536.60 L 323.60 532.80 L 321.30 522.90 L 317.70 510.30 L 310.70 489.60 L 305.20 476.60 L 301.60 469.30 L 300.30 464.00 L 299.90 459.30 L 300.00 453.90 L 300.50 448.30 L 301.50 442.60 L 303.00 437.00 L 304.90 431.80 L 306.50 428.50 L 310.30 423.10 L 312.60 421.00 L 315.10 419.40 L 317.80 418.40 L 322.10 418.00 L 327.40 419.20 L 331.40 421.10 L 335.20 423.60 L 338.80 426.80 L 342.00 430.40 L 345.10 434.40 L 350.50 443.80 L 355.10 454.30 L 357.80 462.60 L 360.10 471.20 L 361.80 479.90 L 363.00 488.30 L 364.20 506.40 L 364.70 507.30 L 365.20 507.60 L 366.50 507.00 L 368.80 504.40 L 372.90 497.60 L 382.70 473.90 L 388.60 461.30 L 395.40 449.10 L 399.00 443.50 L 402.40 438.90 L 407.30 434.00 L 409.50 432.50 L 412.90 431.30 L 414.50 431.40 L 417.40 432.60 L 420.30 435.70 L 421.80 438.40 L 423.50 442.60 L 424.80 447.00 L 425.80 451.60 L 426.30 456.40 L 426.60 462.90 L 426.40 469.60 L 425.60 476.50 L 424.40 483.30 L 420.90 496.90 L 418.60 503.50 L 413.60 515.80 L 410.70 521.70 L 405.10 531.60 L 402.00 536.10 L 395.80 543.70 L 395.60 544.90 L 396.20 545.40 L 397.70 545.60 L 401.30 545.30 L 418.90 541.90 L 431.90 540.10 L 439.20 539.40 L 447.10 539.10 L 455.00 539.10 L 462.70 539.70 L 467.80 540.40 L 477.10 542.70 L 481.40 544.50 L 485.10 546.60 L 488.40 549.10 L 490.60 551.30 L 492.40 553.80 L 493.80 556.60 L 495.00 559.80 L 495.50 562.70 L 495.30 565.00 L 494.70 567.00 L 493.50 568.70 L 491.90 570.00 L 489.80 571.30 L 487.10 572.30 L 479.20 573.90 L 467.30 574.50 L 457.40 574.40 L 408.70 572.60 L 395.50 572.60 L 378.20 573.40 L 361.40 575.40 L 353.40 577.10 L 345.80 579.10 L 340.20 581.00 L 335.00 583.30 L 330.10 585.80 L 325.50 588.60 Z" fill="url(#未命名的渐变_25-3)" fill-rule="nonzero" group-id="1" node-id="274" stroke="none" target-height="170.59998" target-width="325.1" target-x="170.4" target-y="418"/><g node-id="586"><path d="M 365.50 414.70 L 506.50 332.80 L 505.90 539.30 L 364.90 621.20 L 365.50 414.70 Z" fill="#c5c5c5" fill-rule="nonzero" group-id="1,2" node-id="278" stroke="none" target-height="288.40002" target-width="141.6" target-x="364.9" target-y="332.8"/><g node-id="589"><g clip-path="url(#clip-path)" group-id="1,2,5" node-id="282"><path d="M 505.90 539.30 L 506.50 332.80 L 492.40 341.00 L 491.80 547.50 L 505.90 539.30" fill="#cf1322" fill-rule="nonzero" group-id="1,2,5,14" node-id="284" stroke="none" target-height="214.70001" target-width="14.700012" target-x="491.8" target-y="332.8"/><path d="M 491.80 547.50 L 492.40 341.00 L 478.30 349.20 L 477.70 555.70 L 491.80 547.50" fill="#ffffff" fill-rule="nonzero" group-id="1,2,5,14" node-id="286" stroke="none" target-height="214.70001" target-width="14.699982" target-x="477.7" target-y="341"/><path d="M 477.70 555.70 L 478.30 349.20 L 464.20 357.30 L 463.60 563.90 L 477.70 555.70" fill="#cf1322" fill-rule="nonzero" group-id="1,2,5,14" node-id="288" stroke="none" target-height="214.70001" target-width="14.699982" target-x="463.6" target-y="349.2"/><path d="M 463.60 563.90 L 464.20 357.30 L 450.10 365.50 L 449.50 572.10 L 463.60 563.90" fill="#ffffff" fill-rule="nonzero" group-id="1,2,5,14" node-id="290" stroke="none" target-height="214.79999" target-width="14.700012" target-x="449.5" target-y="357.3"/><path d="M 449.50 572.10 L 450.10 365.50 L 436.00 373.70 L 435.40 580.30 L 449.50 572.10" fill="#ff4d4f" fill-rule="nonzero" group-id="1,2,5,14" node-id="292" stroke="none" target-height="214.79999" target-width="14.700012" target-x="435.4" target-y="365.5"/><path d="M 435.40 580.30 L 436.00 373.70 L 421.90 381.90 L 421.30 588.50 L 435.40 580.30" fill="#ffffff" fill-rule="nonzero" group-id="1,2,5,14" node-id="294" stroke="none" target-height="214.79999" target-width="14.700012" target-x="421.3" target-y="373.7"/><path d="M 421.30 588.50 L 421.90 381.90 L 407.80 390.10 L 407.20 596.70 L 421.30 588.50" fill="#ff4d4f" fill-rule="nonzero" group-id="1,2,5,14" node-id="296" stroke="none" target-height="214.80002" target-width="14.699982" target-x="407.2" target-y="381.9"/><path d="M 407.20 596.70 L 407.80 390.10 L 393.70 398.30 L 393.10 604.80 L 407.20 596.70" fill="#ffffff" fill-rule="nonzero" group-id="1,2,5,14" node-id="298" stroke="none" target-height="214.69998" target-width="14.699982" target-x="393.1" target-y="390.1"/><path d="M 393.10 604.80 L 393.70 398.30 L 379.60 406.50 L 379.00 613.00 L 393.10 604.80" fill="#ff4d4f" fill-rule="nonzero" group-id="1,2,5,14" node-id="300" stroke="none" target-height="214.70001" target-width="14.700012" target-x="379" target-y="398.3"/><path d="M 379.00 613.00 L 379.60 406.50 L 365.50 414.70 L 364.90 621.20 L 379.00 613.00" fill="#ffffff" fill-rule="nonzero" group-id="1,2,5,14" node-id="302" stroke="none" target-height="214.70001" target-width="14.700012" target-x="364.9" target-y="406.5"/></g></g><path d="M 482.90 521.30 L 623.90 439.40 L 626.80 441.10 L 485.80 523.00 L 482.90 521.30 Z" fill="#dcdcdc" fill-rule="nonzero" group-id="1,2" node-id="306" stroke="none" target-height="83.600006" target-width="143.9" target-x="482.9" target-y="439.4"/><g node-id="590"><g clip-path="url(#clip-path-2)" group-id="1,2,6" node-id="310"><path d="M 354.90 245.90 L 495.90 164.00 L 502.20 241.60 L 504.10 269.10 L 363.10 351.00 L 361.20 323.50 L 354.90 245.80" fill="#c2c2c2" fill-rule="nonzero" group-id="1,2,6,15,23" node-id="314" stroke="none" target-height="187" target-width="149.20001" target-x="354.9" target-y="164"/><path d="M 363.10 351.00 L 504.10 269.10 L 505.30 291.10 L 506.20 311.90 L 365.20 393.80 L 363.10 351.00" fill="#bdbdbd" fill-rule="nonzero" group-id="1,2,6,15,23" node-id="316" stroke="none" target-height="124.69998" target-width="143.1" target-x="363.1" target-y="269.1"/><path d="M 365.20 393.80 L 506.20 311.90 L 506.50 332.80 L 365.50 414.70 L 365.20 393.80" fill="#b8b8b8" fill-rule="nonzero" group-id="1,2,6,15,23" node-id="318" stroke="none" target-height="102.80002" target-width="141.29999" target-x="365.2" target-y="311.9"/><path d="M 506.50 332.80 L 505.80 302.00 L 503.90 267.30 L 501.30 231.10 L 495.90 164.00 L 481.80 172.20 L 487.30 239.40 L 489.80 275.50 L 491.70 310.20 L 492.40 341.00 L 506.50 332.80" fill="#cf1322" fill-rule="nonzero" group-id="1,2,6,15" node-id="321" stroke="none" target-height="177" target-width="24.700012" target-x="481.8" target-y="164"/><path d="M 492.40 341.00 L 491.70 310.20 L 489.80 275.50 L 487.30 239.40 L 481.80 172.20 L 467.70 180.40 L 473.20 247.50 L 475.70 283.70 L 477.60 318.40 L 478.30 349.20 L 492.40 341.00" fill="#ffffff" fill-rule="nonzero" group-id="1,2,6,15" node-id="323" stroke="none" target-height="177.00002" target-width="24.699982" target-x="467.7" target-y="172.2"/><path d="M 478.30 349.20 L 477.60 318.30 L 475.70 283.70 L 473.20 247.50 L 467.70 180.30 L 453.60 188.50 L 459.10 255.70 L 461.60 291.80 L 463.50 326.50 L 464.20 357.30 L 478.30 349.20" fill="#cf1322" fill-rule="nonzero" group-id="1,2,6,15" node-id="325" stroke="none" target-height="176.99998" target-width="24.699982" target-x="453.6" target-y="180.3"/><path d="M 464.20 357.30 L 463.50 326.50 L 461.60 291.90 L 459.10 255.70 L 453.60 188.50 L 439.50 196.70 L 445.00 263.90 L 447.60 300.00 L 449.40 334.70 L 450.10 365.50 L 464.20 357.30" fill="#ffffff" fill-rule="nonzero" group-id="1,2,6,15" node-id="327" stroke="none" target-height="177" target-width="24.700012" target-x="439.5" target-y="188.5"/><path d="M 450.10 365.50 L 449.40 334.70 L 447.60 300.10 L 445.00 263.90 L 439.50 196.70 L 425.40 204.90 L 430.90 272.10 L 433.50 308.20 L 435.30 342.90 L 436.00 373.70 L 450.10 365.50" fill="#cf1322" fill-rule="nonzero" group-id="1,2,6,15" node-id="329" stroke="none" target-height="177.00002" target-width="24.700012" target-x="425.4" target-y="196.7"/><path d="M 436.00 373.70 L 435.30 342.90 L 433.50 308.20 L 430.90 272.10 L 425.40 204.90 L 411.30 213.10 L 416.80 280.30 L 419.40 316.40 L 421.20 351.10 L 421.90 381.90 L 436.00 373.70" fill="#ffffff" fill-rule="nonzero" group-id="1,2,6,15" node-id="331" stroke="none" target-height="177" target-width="24.700012" target-x="411.3" target-y="204.9"/><path d="M 421.90 381.90 L 421.20 351.10 L 419.40 316.40 L 416.80 280.30 L 411.30 213.10 L 397.20 221.30 L 402.70 288.50 L 405.30 324.60 L 407.10 359.30 L 407.80 390.10 L 421.90 381.90" fill="#cf1322" fill-rule="nonzero" group-id="1,2,6,15" node-id="333" stroke="none" target-height="177" target-width="24.699982" target-x="397.2" target-y="213.1"/><path d="M 407.80 390.10 L 407.10 359.30 L 405.30 324.60 L 402.70 288.50 L 397.20 221.30 L 383.10 229.50 L 388.60 296.70 L 391.20 332.80 L 393.00 367.50 L 393.70 398.30 L 407.80 390.10" fill="#ffffff" fill-rule="nonzero" group-id="1,2,6,15" node-id="335" stroke="none" target-height="176.99998" target-width="24.699982" target-x="383.1" target-y="221.3"/><path d="M 393.70 398.30 L 393.00 367.50 L 391.20 332.80 L 388.60 296.70 L 383.10 229.50 L 369.00 237.70 L 374.50 304.80 L 377.10 341.00 L 378.90 375.70 L 379.60 406.50 L 393.70 398.30" fill="#ff4d4f" fill-rule="nonzero" group-id="1,2,6,15" node-id="337" stroke="none" target-height="177" target-width="24.700012" target-x="369" target-y="229.5"/><path d="M 379.60 406.50 L 378.90 375.70 L 377.10 341.00 L 374.50 304.90 L 369.00 237.70 L 354.90 245.90 L 360.40 313.00 L 363.00 349.20 L 364.80 383.90 L 365.50 414.70 L 379.60 406.50" fill="#ffffff" fill-rule="nonzero" group-id="1,2,6,15" node-id="339" stroke="none" target-height="177.00002" target-width="24.700012" target-x="354.9" target-y="237.7"/></g></g><g node-id="591"><g clip-path="url(#clip-path-3)" group-id="1,2,7" node-id="345"><path d="M 457.00 410.60 L 598.00 328.70 L 600.60 339.10 L 459.60 421.00 L 457.00 410.60" fill="#e0e0e0" fill-rule="nonzero" group-id="1,2,7,16,24" node-id="349" stroke="none" target-height="92.29999" target-width="143.59998" target-x="457" target-y="328.7"/><path d="M 459.60 421.00 L 600.60 339.10 L 606.60 363.90 L 623.90 439.40 L 482.90 521.30 L 465.60 445.80 L 459.60 421.00" fill="#dbdbdb" fill-rule="nonzero" group-id="1,2,7,16,24" node-id="351" stroke="none" target-height="182.19998" target-width="164.30002" target-x="459.6" target-y="339.1"/><path d="M 623.90 439.40 L 604.70 355.90 L 598.00 328.70 L 583.90 336.90 L 590.60 364.10 L 609.80 447.60 L 623.90 439.40" fill="#cf1322" fill-rule="nonzero" group-id="1,2,7,16" node-id="354" stroke="none" target-height="118.899994" target-width="40" target-x="583.9" target-y="328.7"/><path d="M 609.80 447.60 L 590.60 364.10 L 583.90 336.90 L 569.80 345.10 L 576.50 372.30 L 595.70 455.80 L 609.80 447.60" fill="#ffffff" fill-rule="nonzero" group-id="1,2,7,16" node-id="356" stroke="none" target-height="118.899994" target-width="40" target-x="569.8" target-y="336.9"/><path d="M 595.70 455.80 L 576.50 372.30 L 569.80 345.10 L 555.70 353.30 L 562.40 380.50 L 581.60 464.00 L 595.70 455.80" fill="#cf1322" fill-rule="nonzero" group-id="1,2,7,16" node-id="358" stroke="none" target-height="118.899994" target-width="40" target-x="555.7" target-y="345.1"/><path d="M 581.60 464.00 L 562.40 380.50 L 555.70 353.30 L 541.60 361.50 L 548.30 388.70 L 567.50 472.20 L 581.60 464.00" fill="#ffffff" fill-rule="nonzero" group-id="1,2,7,16" node-id="360" stroke="none" target-height="118.900024" target-width="40" target-x="541.6" target-y="353.3"/><path d="M 567.50 472.10 L 548.30 388.70 L 541.60 361.50 L 527.50 369.60 L 534.20 396.90 L 553.40 480.30 L 567.50 472.10" fill="#ff4d4f" fill-rule="nonzero" group-id="1,2,7,16" node-id="362" stroke="none" target-height="118.79999" target-width="40" target-x="527.5" target-y="361.5"/><path d="M 553.40 480.30 L 534.20 396.90 L 527.50 369.60 L 513.40 377.80 L 520.10 405.10 L 539.30 488.50 L 553.40 480.30" fill="#ffffff" fill-rule="nonzero" group-id="1,2,7,16" node-id="364" stroke="none" target-height="118.899994" target-width="40" target-x="513.4" target-y="369.6"/><path d="M 539.30 488.50 L 520.10 405.10 L 513.40 377.80 L 499.30 386.00 L 506.00 413.20 L 525.20 496.70 L 539.30 488.50" fill="#ff4d4f" fill-rule="nonzero" group-id="1,2,7,16" node-id="366" stroke="none" target-height="118.900024" target-width="40" target-x="499.3" target-y="377.8"/><path d="M 525.20 496.70 L 506.00 413.30 L 499.30 386.00 L 485.20 394.20 L 491.90 421.50 L 511.10 504.90 L 525.20 496.70" fill="#ffffff" fill-rule="nonzero" group-id="1,2,7,16" node-id="368" stroke="none" target-height="118.899994" target-width="40" target-x="485.2" target-y="386"/><path d="M 511.10 504.90 L 491.90 421.50 L 485.20 394.20 L 471.10 402.40 L 477.80 429.70 L 497.00 513.10 L 511.10 504.90" fill="#ff4d4f" fill-rule="nonzero" group-id="1,2,7,16" node-id="370" stroke="none" target-height="118.89996" target-width="40" target-x="471.1" target-y="394.2"/><path d="M 497.00 513.10 L 477.80 429.70 L 471.10 402.40 L 457.00 410.60 L 463.70 437.80 L 482.90 521.30 L 497.00 513.10" fill="#ffffff" fill-rule="nonzero" group-id="1,2,7,16" node-id="372" stroke="none" target-height="118.899994" target-width="40" target-x="457" target-y="402.4"/></g></g><path d="M 573.90 488.80 L 714.90 406.90 L 648.00 576.50 L 507.00 658.40 L 573.90 488.80 Z" fill="#989898" fill-rule="nonzero" group-id="1,2" node-id="376" stroke="none" target-height="251.50003" target-width="207.90002" target-x="507" target-y="406.9"/><g node-id="592"><g clip-path="url(#clip-path-4)" group-id="1,2,8" node-id="380"><path d="M 648.00 576.50 L 714.90 406.90 L 700.80 415.10 L 633.90 584.70 L 648.00 576.50" fill="#cf1322" fill-rule="nonzero" group-id="1,2,8,17" node-id="382" stroke="none" target-height="177.80002" target-width="81" target-x="633.9" target-y="406.9"/><path d="M 633.90 584.70 L 700.80 415.10 L 686.70 423.30 L 619.80 592.90 L 633.90 584.70" fill="#ffffff" fill-rule="nonzero" group-id="1,2,8,17" node-id="384" stroke="none" target-height="177.80002" target-width="81" target-x="619.8" target-y="415.1"/><path d="M 619.80 592.90 L 686.70 423.30 L 672.60 431.50 L 605.70 601.10 L 619.80 592.90" fill="#cf1322" fill-rule="nonzero" group-id="1,2,8,17" node-id="386" stroke="none" target-height="177.79999" target-width="81" target-x="605.7" target-y="423.3"/><path d="M 605.70 601.10 L 672.60 431.50 L 658.50 439.60 L 591.60 609.30 L 605.70 601.10" fill="#ffffff" fill-rule="nonzero" group-id="1,2,8,17" node-id="388" stroke="none" target-height="177.79999" target-width="81" target-x="591.6" target-y="431.5"/><path d="M 591.60 609.30 L 658.50 439.60 L 644.40 447.80 L 577.50 617.40 L 591.60 609.30" fill="#cf1322" fill-rule="nonzero" group-id="1,2,8,17" node-id="390" stroke="none" target-height="177.80002" target-width="81" target-x="577.5" target-y="439.6"/><path d="M 577.50 617.40 L 644.40 447.80 L 630.30 456.00 L 563.40 625.60 L 577.50 617.40" fill="#ffccc7" fill-rule="nonzero" group-id="1,2,8,17" node-id="392" stroke="none" target-height="177.79999" target-width="81" target-x="563.4" target-y="447.8"/><path d="M 563.40 625.60 L 630.30 456.00 L 616.20 464.20 L 549.30 633.80 L 563.40 625.60" fill="#cf1322" fill-rule="nonzero" group-id="1,2,8,17" node-id="394" stroke="none" target-height="177.79999" target-width="81" target-x="549.3" target-y="456"/><path d="M 549.30 633.80 L 616.20 464.20 L 602.10 472.40 L 535.20 642.00 L 549.30 633.80" fill="#ffccc7" fill-rule="nonzero" group-id="1,2,8,17" node-id="396" stroke="none" target-height="177.79999" target-width="81" target-x="535.2" target-y="464.2"/><path d="M 535.20 642.00 L 602.10 472.40 L 588.00 480.60 L 521.10 650.20 L 535.20 642.00" fill="#cf1322" fill-rule="nonzero" group-id="1,2,8,17" node-id="398" stroke="none" target-height="177.80002" target-width="81" target-x="521.1" target-y="472.4"/><path d="M 521.10 650.20 L 588.00 480.60 L 573.90 488.80 L 507.00 658.40 L 521.10 650.20" fill="#ffccc7" fill-rule="nonzero" group-id="1,2,8,17" node-id="400" stroke="none" target-height="177.80002" target-width="81" target-x="507" target-y="480.6"/></g></g><path d="M 289.00 81.90 L 429.90 0.00 L 525.30 55.10 L 384.40 137.00 L 289.00 81.90 Z" fill="#dcdcdc" fill-rule="nonzero" group-id="1,2" node-id="404" stroke="none" target-height="137" target-width="236.29999" target-x="289" target-y="0"/><g node-id="593"><g clip-path="url(#clip-path-5)" group-id="1,2,9" node-id="408"><path d="M 525.30 55.10 L 429.90 0.00 L 415.80 8.20 L 511.20 63.30 L 525.30 55.10" fill="#cf1322" fill-rule="nonzero" group-id="1,2,9,18" node-id="410" stroke="none" target-height="63.3" target-width="109.5" target-x="415.8" target-y="0"/><path d="M 511.20 63.30 L 415.80 8.20 L 401.70 16.40 L 497.10 71.50 L 511.20 63.30" fill="#ffccc7" fill-rule="nonzero" group-id="1,2,9,18" node-id="412" stroke="none" target-height="63.3" target-width="109.5" target-x="401.7" target-y="8.2"/><path d="M 497.10 71.50 L 401.70 16.40 L 387.60 24.60 L 483.00 79.70 L 497.10 71.50" fill="#cf1322" fill-rule="nonzero" group-id="1,2,9,18" node-id="414" stroke="none" target-height="63.299995" target-width="109.5" target-x="387.6" target-y="16.4"/><path d="M 483.00 79.70 L 387.60 24.60 L 373.50 32.80 L 468.90 87.80 L 483.00 79.70" fill="#ffccc7" fill-rule="nonzero" group-id="1,2,9,18" node-id="416" stroke="none" target-height="63.200005" target-width="109.5" target-x="373.5" target-y="24.6"/><path d="M 468.90 87.80 L 373.50 32.80 L 359.50 41.00 L 454.90 96.00 L 468.90 87.80" fill="#cf1322" fill-rule="nonzero" group-id="1,2,9,18" node-id="418" stroke="none" target-height="63.2" target-width="109.399994" target-x="359.5" target-y="32.8"/><path d="M 454.90 96.00 L 359.50 41.00 L 345.40 49.20 L 440.80 104.20 L 454.90 96.00" fill="#ffccc7" fill-rule="nonzero" group-id="1,2,9,18" node-id="420" stroke="none" target-height="63.199997" target-width="109.5" target-x="345.4" target-y="41"/><path d="M 440.80 104.20 L 345.40 49.20 L 331.30 57.30 L 426.70 112.40 L 440.80 104.20" fill="#cf1322" fill-rule="nonzero" group-id="1,2,9,18" node-id="422" stroke="none" target-height="63.2" target-width="109.5" target-x="331.3" target-y="49.2"/><path d="M 426.70 112.40 L 331.30 57.30 L 317.20 65.50 L 412.60 120.60 L 426.70 112.40" fill="#ffccc7" fill-rule="nonzero" group-id="1,2,9,18" node-id="424" stroke="none" target-height="63.3" target-width="109.5" target-x="317.2" target-y="57.3"/><path d="M 412.60 120.60 L 317.20 65.50 L 303.10 73.70 L 398.50 128.80 L 412.60 120.60" fill="#cf1322" fill-rule="nonzero" group-id="1,2,9,18" node-id="426" stroke="none" target-height="63.300003" target-width="109.5" target-x="303.1" target-y="65.5"/><path d="M 398.50 128.80 L 303.10 73.70 L 289.00 81.90 L 384.40 137.00 L 398.50 128.80" fill="#ffccc7" fill-rule="nonzero" group-id="1,2,9,18" node-id="428" stroke="none" target-height="63.300003" target-width="109.5" target-x="289" target-y="73.7"/></g></g><path d="M 384.40 137.00 L 525.30 55.10 L 598.00 328.70 L 457.00 410.60 L 384.40 137.00 Z" fill="#e8e8e8" fill-rule="nonzero" group-id="1,2" node-id="432" stroke="none" target-height="355.5" target-width="213.6" target-x="384.4" target-y="55.1"/><g node-id="594"><g clip-path="url(#clip-path-6)" group-id="1,2,10" node-id="436"><path d="M 598.00 328.70 L 525.30 55.10 L 511.20 63.30 L 583.90 336.90 L 598.00 328.70" fill="#ff4d4f" fill-rule="nonzero" group-id="1,2,10,19" node-id="438" stroke="none" target-height="281.8" target-width="86.79999" target-x="511.2" target-y="55.1"/><path d="M 583.90 336.90 L 511.20 63.30 L 497.10 71.50 L 569.80 345.10 L 583.90 336.90" fill="#ffffff" fill-rule="nonzero" group-id="1,2,10,19" node-id="440" stroke="none" target-height="281.80002" target-width="86.80002" target-x="497.1" target-y="63.3"/><path d="M 569.80 345.10 L 497.10 71.50 L 483.00 79.70 L 555.70 353.30 L 569.80 345.10" fill="#ff4d4f" fill-rule="nonzero" group-id="1,2,10,19" node-id="442" stroke="none" target-height="281.8" target-width="86.79999" target-x="483" target-y="71.5"/><path d="M 555.70 353.30 L 483.00 79.70 L 468.90 87.80 L 541.60 361.40 L 555.70 353.30" fill="#ffffff" fill-rule="nonzero" group-id="1,2,10,19" node-id="444" stroke="none" target-height="281.7" target-width="86.80002" target-x="468.9" target-y="79.7"/><path d="M 541.60 361.40 L 468.90 87.80 L 454.90 96.00 L 527.50 369.60 L 541.60 361.40" fill="#ff4d4f" fill-rule="nonzero" group-id="1,2,10,19" node-id="446" stroke="none" target-height="281.8" target-width="86.69998" target-x="454.9" target-y="87.8"/><path d="M 527.50 369.60 L 454.90 96.00 L 440.80 104.20 L 513.40 377.80 L 527.50 369.60" fill="#ffffff" fill-rule="nonzero" group-id="1,2,10,19" node-id="448" stroke="none" target-height="281.8" target-width="86.70001" target-x="440.8" target-y="96"/><path d="M 513.40 377.80 L 440.80 104.20 L 426.70 112.40 L 499.30 386.00 L 513.40 377.80" fill="#ff4d4f" fill-rule="nonzero" group-id="1,2,10,19" node-id="450" stroke="none" target-height="281.8" target-width="86.70001" target-x="426.7" target-y="104.2"/><path d="M 499.30 386.00 L 426.70 112.40 L 412.60 120.60 L 485.20 394.20 L 499.30 386.00" fill="#ffffff" fill-rule="nonzero" group-id="1,2,10,19" node-id="452" stroke="none" target-height="281.80002" target-width="86.69998" target-x="412.6" target-y="112.4"/><path d="M 485.20 394.20 L 412.60 120.60 L 398.50 128.80 L 471.10 402.40 L 485.20 394.20" fill="#ff4d4f" fill-rule="nonzero" group-id="1,2,10,19" node-id="454" stroke="none" target-height="281.8" target-width="86.70001" target-x="398.5" target-y="120.6"/><path d="M 471.10 402.40 L 398.50 128.80 L 384.40 137.00 L 457.00 410.60 L 471.10 402.40" fill="#ffffff" fill-rule="nonzero" group-id="1,2,10,19" node-id="456" stroke="none" target-height="281.8" target-width="86.70001" target-x="384.4" target-y="128.8"/></g></g><path d="M 609.10 392.60 L 750.10 310.70 L 714.90 406.90 L 573.90 488.80 L 609.10 392.60 Z" fill="#9b9b9b" fill-rule="nonzero" group-id="1,2" node-id="460" stroke="none" target-height="178.09998" target-width="176.19995" target-x="573.9" target-y="310.7"/><g node-id="595"><g clip-path="url(#clip-path-7)" group-id="1,2,11" node-id="464"><path d="M 714.90 406.90 L 750.10 310.70 L 736.00 318.90 L 700.80 415.10 L 714.90 406.90" fill="#cf1322" fill-rule="nonzero" group-id="1,2,11,20" node-id="466" stroke="none" target-height="104.399994" target-width="49.299988" target-x="700.8" target-y="310.7"/><path d="M 700.80 415.10 L 736.00 318.90 L 721.90 327.10 L 686.70 423.30 L 700.80 415.10" fill="#ffffff" fill-rule="nonzero" group-id="1,2,11,20" node-id="468" stroke="none" target-height="104.399994" target-width="49.299988" target-x="686.7" target-y="318.9"/><path d="M 686.70 423.30 L 721.90 327.10 L 707.80 335.30 L 672.60 431.50 L 686.70 423.30" fill="#cf1322" fill-rule="nonzero" group-id="1,2,11,20" node-id="470" stroke="none" target-height="104.399994" target-width="49.30005" target-x="672.6" target-y="327.1"/><path d="M 672.60 431.50 L 707.80 335.30 L 693.70 343.50 L 658.50 439.60 L 672.60 431.50" fill="#ffffff" fill-rule="nonzero" group-id="1,2,11,20" node-id="472" stroke="none" target-height="104.30002" target-width="49.299988" target-x="658.5" target-y="335.3"/><path d="M 658.50 439.60 L 693.70 343.50 L 679.60 351.70 L 644.40 447.80 L 658.50 439.60" fill="#cf1322" fill-rule="nonzero" group-id="1,2,11,20" node-id="474" stroke="none" target-height="104.29999" target-width="49.299988" target-x="644.4" target-y="343.5"/><path d="M 644.40 447.80 L 679.60 351.70 L 665.50 359.90 L 630.30 456.00 L 644.40 447.80" fill="#ffffff" fill-rule="nonzero" group-id="1,2,11,20" node-id="476" stroke="none" target-height="104.29999" target-width="49.299988" target-x="630.3" target-y="351.7"/><path d="M 630.30 456.00 L 665.50 359.90 L 651.40 368.10 L 616.20 464.20 L 630.30 456.00" fill="#cf1322" fill-rule="nonzero" group-id="1,2,11,20" node-id="478" stroke="none" target-height="104.30002" target-width="49.299988" target-x="616.2" target-y="359.9"/><path d="M 616.20 464.20 L 651.40 368.10 L 637.30 376.30 L 602.10 472.40 L 616.20 464.20" fill="#ffffff" fill-rule="nonzero" group-id="1,2,11,20" node-id="480" stroke="none" target-height="104.29999" target-width="49.30005" target-x="602.1" target-y="368.1"/><path d="M 602.10 472.40 L 637.30 376.30 L 623.20 384.50 L 588.00 480.60 L 602.10 472.40" fill="#cf1322" fill-rule="nonzero" group-id="1,2,11,20" node-id="482" stroke="none" target-height="104.30002" target-width="49.299988" target-x="588" target-y="376.3"/><path d="M 588.00 480.60 L 623.20 384.50 L 609.10 392.60 L 573.90 488.80 L 588.00 480.60" fill="#ffccc7" fill-rule="nonzero" group-id="1,2,11,20" node-id="484" stroke="none" target-height="104.29999" target-width="49.299988" target-x="573.9" target-y="384.5"/></g></g><path d="M 679.90 307.60 L 678.50 802.30 L 600.00 756.90 L 600.80 536.00 L 601.40 520.40 L 603.30 487.90 L 605.90 454.80 L 611.50 394.00 L 609.20 392.60 L 573.90 488.80 L 507.00 658.40 L 457.60 629.90 L 391.20 383.30 L 357.20 247.20 L 354.90 245.90 L 360.40 313.00 L 363.00 349.20 L 364.80 383.90 L 365.40 400.20 L 364.90 621.20 L 287.60 576.60 L 289.00 81.90 L 384.40 137.00 L 457.00 410.60 L 463.70 437.80 L 482.90 521.30 L 485.80 523.00 L 490.40 509.50 L 503.30 468.70 L 512.30 442.50 L 584.50 252.50 Z" fill="url(#未命名的渐变_7)" fill-rule="nonzero" group-id="1,2" node-id="488" stroke="none" target-height="720.39996" target-width="392.30002" target-x="287.6" target-y="81.9"/><path d="M 679.90 307.60 L 820.80 225.70 L 819.40 720.30 L 678.50 802.30 L 679.90 307.60 Z" fill="#c5c5c5" fill-rule="nonzero" group-id="1,2" node-id="490" stroke="none" target-height="576.6" target-width="142.29999" target-x="678.5" target-y="225.7"/><g node-id="596"><g clip-path="url(#clip-path-8)" group-id="1,2,12" node-id="494"><path d="M 819.40 720.30 L 820.80 225.70 L 806.70 233.90 L 805.30 728.50 L 819.40 720.30" fill="#ff4d4f" fill-rule="nonzero" group-id="1,2,12,21" node-id="496" stroke="none" target-height="502.8" target-width="15.5" target-x="805.3" target-y="225.7"/><path d="M 805.30 728.50 L 806.70 233.90 L 792.70 242.10 L 791.20 736.70 L 805.30 728.50" fill="#ffffff" fill-rule="nonzero" group-id="1,2,12,21" node-id="498" stroke="none" target-height="502.80002" target-width="15.5" target-x="791.2" target-y="233.9"/><path d="M 791.20 736.70 L 792.70 242.10 L 778.60 250.30 L 777.20 744.90 L 791.20 736.70" fill="#ff4d4f" fill-rule="nonzero" group-id="1,2,12,21" node-id="500" stroke="none" target-height="502.80002" target-width="15.5" target-x="777.2" target-y="242.1"/><path d="M 777.20 744.90 L 778.60 250.30 L 764.50 258.50 L 763.10 753.10 L 777.20 744.90" fill="#ffffff" fill-rule="nonzero" group-id="1,2,12,21" node-id="502" stroke="none" target-height="502.8" target-width="15.5" target-x="763.1" target-y="250.3"/><path d="M 763.10 753.10 L 764.50 258.50 L 750.40 266.70 L 749.00 761.30 L 763.10 753.10" fill="#ff4d4f" fill-rule="nonzero" group-id="1,2,12,21" node-id="504" stroke="none" target-height="502.8" target-width="15.5" target-x="749" target-y="258.5"/><path d="M 749.00 761.30 L 750.40 266.70 L 736.30 274.90 L 734.90 769.50 L 749.00 761.30" fill="#ffffff" fill-rule="nonzero" group-id="1,2,12,21" node-id="506" stroke="none" target-height="502.8" target-width="15.5" target-x="734.9" target-y="266.7"/><path d="M 734.90 769.50 L 736.30 274.90 L 722.20 283.00 L 720.80 777.70 L 734.90 769.50" fill="#ff4d4f" fill-rule="nonzero" group-id="1,2,12,21" node-id="508" stroke="none" target-height="502.80002" target-width="15.5" target-x="720.8" target-y="274.9"/><path d="M 720.80 777.70 L 722.20 283.00 L 708.10 291.20 L 706.70 785.90 L 720.80 777.70" fill="#ffffff" fill-rule="nonzero" group-id="1,2,12,21" node-id="510" stroke="none" target-height="502.90002" target-width="15.5" target-x="706.7" target-y="283"/><path d="M 706.70 785.90 L 708.10 291.20 L 694.00 299.40 L 692.60 794.10 L 706.70 785.90" fill="#ff4d4f" fill-rule="nonzero" group-id="1,2,12,21" node-id="512" stroke="none" target-height="502.89996" target-width="15.5" target-x="692.6" target-y="291.2"/><path d="M 692.60 794.10 L 694.00 299.40 L 679.90 307.60 L 678.50 802.30 L 692.60 794.10" fill="#ffffff" fill-rule="nonzero" group-id="1,2,12,21" node-id="514" stroke="none" target-height="502.9" target-width="15.5" target-x="678.5" target-y="299.4"/></g></g><path d="M 584.50 252.50 L 725.40 170.60 L 820.80 225.70 L 679.90 307.60 L 584.50 252.50 Z" fill="#dcdcdc" fill-rule="nonzero" group-id="1,2" node-id="518" stroke="none" target-height="137" target-width="236.29999" target-x="584.5" target-y="170.6"/><g node-id="597"><g clip-path="url(#clip-path-9)" group-id="1,2,13" node-id="522"><path d="M 820.80 225.70 L 725.40 170.60 L 711.30 178.80 L 806.70 233.90 L 820.80 225.70" fill="#cf1322" fill-rule="nonzero" group-id="1,2,13,22" node-id="524" stroke="none" target-height="63.299988" target-width="109.5" target-x="711.3" target-y="170.6"/><path d="M 806.70 233.90 L 711.30 178.80 L 697.20 187.00 L 792.70 242.10 L 806.70 233.90" fill="#ffccc7" fill-rule="nonzero" group-id="1,2,13,22" node-id="526" stroke="none" target-height="63.300003" target-width="109.5" target-x="697.2" target-y="178.8"/><path d="M 792.70 242.10 L 697.20 187.00 L 683.20 195.20 L 778.60 250.30 L 792.70 242.10" fill="#cf1322" fill-rule="nonzero" group-id="1,2,13,22" node-id="528" stroke="none" target-height="63.300003" target-width="109.5" target-x="683.2" target-y="187"/><path d="M 778.60 250.30 L 683.20 195.20 L 669.10 203.40 L 764.50 258.50 L 778.60 250.30" fill="#ffccc7" fill-rule="nonzero" group-id="1,2,13,22" node-id="530" stroke="none" target-height="63.300003" target-width="109.5" target-x="669.1" target-y="195.2"/><path d="M 764.50 258.50 L 669.10 203.40 L 655.00 211.60 L 750.40 266.70 L 764.50 258.50" fill="#cf1322" fill-rule="nonzero" group-id="1,2,13,22" node-id="532" stroke="none" target-height="63.30002" target-width="109.5" target-x="655" target-y="203.4"/><path d="M 750.40 266.70 L 655.00 211.60 L 640.90 219.80 L 736.30 274.80 L 750.40 266.70" fill="#ffccc7" fill-rule="nonzero" group-id="1,2,13,22" node-id="534" stroke="none" target-height="63.19998" target-width="109.5" target-x="640.9" target-y="211.6"/><path d="M 736.30 274.80 L 640.90 219.80 L 626.80 228.00 L 722.20 283.00 L 736.30 274.80" fill="#cf1322" fill-rule="nonzero" group-id="1,2,13,22" node-id="536" stroke="none" target-height="63.199997" target-width="109.5" target-x="626.8" target-y="219.8"/><path d="M 722.20 283.00 L 626.80 228.00 L 612.70 236.10 L 708.10 291.20 L 722.20 283.00" fill="#ffccc7" fill-rule="nonzero" group-id="1,2,13,22" node-id="538" stroke="none" target-height="63.200012" target-width="109.5" target-x="612.7" target-y="228"/><path d="M 708.10 291.20 L 612.70 236.10 L 598.60 244.30 L 694.00 299.40 L 708.10 291.20" fill="#cf1322" fill-rule="nonzero" group-id="1,2,13,22" node-id="540" stroke="none" target-height="63.299988" target-width="109.5" target-x="598.6" target-y="236.1"/><path d="M 694.00 299.40 L 598.60 244.30 L 584.50 252.50 L 679.90 307.60 L 694.00 299.40" fill="#ffccc7" fill-rule="nonzero" group-id="1,2,13,22" node-id="542" stroke="none" target-height="63.300003" target-width="109.5" target-x="584.5" target-y="244.3"/></g></g></g><g node-id="587"><path d="M 379.10 68.00 L 379.00 93.20 L 355.00 107.20 L 355.00 81.90 L 379.10 68.00 Z" fill="#ffffff" fill-rule="nonzero" group-id="1,3" node-id="549" stroke="none" target-height="39.199997" target-width="24.100006" target-x="355" target-y="68"/><path d="M 355.00 81.90 L 355.00 107.20 L 330.80 93.20 L 330.90 68.00 L 355.00 81.90 Z" fill="#cccccc" fill-rule="nonzero" group-id="1,3" node-id="551" stroke="none" target-height="39.199997" target-width="24.200012" target-x="330.8" target-y="68"/><path d="M 379.10 68.00 L 355.00 81.90 L 330.90 68.00 L 354.90 54.00 L 379.10 68.00 Z" fill="#e6e6e6" fill-rule="nonzero" group-id="1,3" node-id="553" stroke="none" target-height="27.900002" target-width="48.200012" target-x="330.9" target-y="54"/></g><g node-id="588"><path d="M 739.00 203.20 L 738.90 228.50 L 714.90 242.50 L 715.00 217.20 L 739.00 203.20 Z" fill="#fcee21" fill-rule="nonzero" group-id="1,4" node-id="558" stroke="none" target-height="39.300003" target-width="24.099976" target-x="714.9" target-y="203.2"/><path d="M 715.00 217.20 L 714.90 242.50 L 690.70 228.50 L 690.80 203.20 L 715.00 217.20 Z" fill="#f7931e" fill-rule="nonzero" group-id="1,4" node-id="560" stroke="none" target-height="39.300003" target-width="24.299988" target-x="690.7" target-y="203.2"/><path d="M 739.00 203.20 L 715.00 217.20 L 690.80 203.20 L 714.80 189.30 L 739.00 203.20 Z" fill="#fbb03b" fill-rule="nonzero" group-id="1,4" node-id="562" stroke="none" target-height="27.899994" target-width="48.200012" target-x="690.8" target-y="189.3"/></g><path d="M 564.70 590.10 L 563.20 596.90 L 561.70 601.80 L 560.90 603.80 L 560.00 605.00 L 560.80 605.80 L 564.20 606.70 L 567.90 606.90 L 569.50 606.40 L 569.10 586.30 Z" fill="#ebbbb7" fill-rule="nonzero" group-id="1" node-id="565" stroke="none" target-height="20.600037" target-width="9.5" target-x="560" target-y="586.3"/><path d="M 576.30 582.80 L 576.80 590.10 L 576.30 595.80 L 575.20 598.90 L 574.40 599.90 L 573.60 600.40 L 571.70 600.30 L 568.50 598.10 L 565.60 594.80 L 562.50 590.50 Z" fill="#ffccc7" fill-rule="nonzero" group-id="1" node-id="567" stroke="none" target-height="17.600037" target-width="14.299988" target-x="562.5" target-y="582.8"/><path d="M 576.80 586.50 L 579.80 582.40 L 580.70 580.70 L 581.10 577.90 L 580.10 576.10 L 577.60 575.10 L 572.10 575.10 L 567.80 576.00 L 565.40 577.30 L 563.80 578.70 L 562.70 580.20 L 561.60 582.90 L 561.60 592.00 L 568.30 590.40 L 573.40 588.50 L 576.80 586.50 Z" fill="#2b304f" fill-rule="nonzero" group-id="1" node-id="569" stroke="none" target-height="16.900024" target-width="19.5" target-x="561.6" target-y="575.1"/><path d="M 594.60 734.70 L 594.60 733.90 L 589.30 732.90 L 576.80 655.10 L 548.30 656.30 L 547.60 672.20 L 547.70 679.10 L 549.70 693.10 L 550.30 704.50 L 550.30 711.10 L 549.90 717.70 L 548.20 728.50 L 545.90 736.10 L 544.10 740.10 L 544.10 741.90 L 554.40 741.90 L 549.60 737.40 L 550.10 732.90 L 554.70 721.60 L 558.10 709.90 L 559.40 703.30 L 561.70 681.30 L 563.60 670.20 L 564.90 670.80 L 576.80 710.20 L 587.80 739.40 Z" fill="#2b304f" fill-rule="nonzero" group-id="1" node-id="571" stroke="none" target-height="86.80005" target-width="50.5" target-x="544.1" target-y="655.1"/><path d="M 576.80 656.20 L 575.90 645.60 L 571.30 604.60 L 560.00 603.40 L 555.80 606.90 L 548.30 657.50 Z" fill="#fcee21" fill-rule="nonzero" group-id="1" node-id="573" stroke="none" target-height="54.099976" target-width="28.5" target-x="548.3" target-y="603.4"/><path d="M 570.20 606.90 L 581.20 622.80 L 583.20 623.90 L 586.20 624.50 L 588.00 624.20 L 597.70 619.30 L 601.60 619.80 L 585.10 631.70 L 582.00 632.60 L 580.20 632.60 L 578.30 632.10 L 576.30 630.90 L 573.90 628.20 L 572.50 626.00 L 570.70 621.60 L 569.70 618.10 L 569.20 614.70 L 569.40 609.70 L 570.20 606.90 Z" fill="#fcee21" fill-rule="nonzero" group-id="1" node-id="575" stroke="none" target-height="25.699951" target-width="32.399963" target-x="569.2" target-y="606.9"/><path d="M 546.70 651.10 L 549.40 647.90 L 550.50 650.60 L 552.50 653.10 L 553.50 656.80 L 553.60 658.00 L 553.20 658.50 L 552.20 659.20 L 551.50 659.20 L 550.70 658.80 L 547.30 655.20 Z" fill="#ffccc7" fill-rule="nonzero" group-id="1" node-id="577" stroke="none" target-height="11.299988" target-width="6.8999634" target-x="546.7" target-y="647.9"/><path d="M 556.40 606.40 L 545.60 622.50 L 543.70 629.10 L 543.10 632.20 L 542.90 639.80 L 543.50 644.00 L 545.30 649.50 L 546.70 652.30 L 549.60 648.60 L 548.50 639.60 L 548.90 634.50 L 549.60 632.60 L 554.40 624.80 Z" fill="#fcee21" fill-rule="nonzero" group-id="1" node-id="579" stroke="none" target-height="45.899963" target-width="13.5" target-x="542.9" target-y="606.4"/><path d="M 602.70 607.90 L 596.70 618.40 L 597.80 619.50 L 605.00 609.10 L 602.70 607.90 Z" fill="#2b304f" fill-rule="nonzero" group-id="1" node-id="581" stroke="none" target-height="11.599976" target-width="8.299988" target-x="596.7" target-y="607.9"/><path d="M 603.30 611.70 L 603.30 618.90 L 599.70 621.20 L 597.20 619.60 L 603.30 611.70 Z" fill="#ffccc7" fill-rule="nonzero" group-id="1" node-id="583" stroke="none" target-height="9.5" target-width="6.0999756" target-x="597.2" target-y="611.7"/></g></svg>